<?xml version="1.0" ?>
<!-- Uploaded to: SVG Repo, www.svgrepo.com, Generator: SVG Repo Mixer Tools -->
<svg width="800px" height="800px" viewBox="0 0 64 64" id="svg5" version="1.1" xml:space="preserve" xmlns="http://www.w3.org/2000/svg" xmlns:svg="http://www.w3.org/2000/svg">
<defs id="defs2"/>
<g id="layer1" transform="translate(-288,-96)">
<path d="m 297.99999,105 h 49 v 6 h -49 z" id="path27786" style="fill:#3e4f59;fill-opacity:1;fill-rule:evenodd;stroke-width:2;stroke-linecap:round;stroke-linejoin:round;stroke-miterlimit:4.1"/>
<path d="m 297.99999,111 h 49 v 40 h -49 z" id="path27788" style="fill:#acbec2;fill-opacity:1;fill-rule:evenodd;stroke-width:2.00001;stroke-linecap:round;stroke-linejoin:round;stroke-miterlimit:4.1"/>
<path d="m 297.99999,111 v 40 h 29.76954 a 28.484051,41.392605 35.599482 0 0 18.625,-40 z" id="path27790" style="fill:#e8edee;fill-opacity:1;fill-rule:evenodd;stroke:none;stroke-width:2.00002;stroke-linecap:round;stroke-linejoin:round;stroke-miterlimit:4.1"/>
<path d="m 299.99999,104 c -1.64501,0 -3,1.355 -3,3 v 40 c 0,0.55229 0.44772,1 1,1 0.55229,0 1,-0.44771 1,-1 v -40 c 0,-0.56413 0.43587,-1 1,-1 h 45 c 0.56414,0 1,0.43587 1,1 v 3 h -42 c -0.55228,0 -1,0.44772 -1,1 0,0.55229 0.44772,1 1,1 h 42 v 37 c 0,0.56413 -0.43586,1 -1,1 h -49 c -0.55228,0 -1,0.44772 -1,1 0,0.55229 0.44772,1 1,1 h 49 c 1.64501,0 3,-1.35499 3,-3 0,-14 0,-28 0,-42 0,-1.645 -1.35499,-3 -3,-3 z" id="path27792" style="color:#000000;fill:#000000;fill-rule:evenodd;stroke-linecap:round;stroke-linejoin:round;stroke-miterlimit:4.1"/>
<path d="m 342.99999,107 c -0.55228,0 -1,0.44772 -1,1 0,0.55229 0.44772,1 1,1 0.55229,0 1,-0.44771 1,-1 0,-0.55228 -0.44771,-1 -1,-1 z" id="path27794" style="color:#000000;fill:#ed7161;fill-opacity:1;fill-rule:evenodd;stroke-linecap:round;stroke-linejoin:round;stroke-miterlimit:4.1;-inkscape-stroke:none"/>
<path d="m 338.99999,107 c -0.55228,0 -1,0.44772 -1,1 0,0.55229 0.44772,1 1,1 0.55229,0 1,-0.44771 1,-1 0,-0.55228 -0.44771,-1 -1,-1 z" id="path27796" style="color:#000000;fill:#ecba16;fill-opacity:1;fill-rule:evenodd;stroke-linecap:round;stroke-linejoin:round;stroke-miterlimit:4.1;-inkscape-stroke:none"/>
<path d="m 334.99999,107 c -0.55228,0 -1,0.44772 -1,1 0,0.55229 0.44772,1 1,1 0.55229,0 1,-0.44771 1,-1 0,-0.55228 -0.44771,-1 -1,-1 z" id="path27798" style="color:#000000;fill:#42b05c;fill-opacity:1;fill-rule:evenodd;stroke-linecap:round;stroke-linejoin:round;stroke-miterlimit:4.1;-inkscape-stroke:none"/>
<path d="m 292.99999,150 a 1,1 0 0 0 -1,1 1,1 0 0 0 1,1 1,1 0 0 0 1,-1 1,1 0 0 0 -1,-1 z" id="path27800" style="color:#000000;fill:#000000;fill-rule:evenodd;stroke-linecap:round;stroke-linejoin:round;stroke-miterlimit:4.1;-inkscape-stroke:none"/>
<path d="m 300.99999,110 c -0.55228,0 -1,0.44772 -1,1 0,0.55229 0.44772,1 1,1 0.55229,0 1,-0.44771 1,-1 0,-0.55228 -0.44771,-1 -1,-1 z" id="path27802" style="color:#000000;fill:#000000;fill-rule:evenodd;stroke-linecap:round;stroke-linejoin:round;stroke-miterlimit:4.1;-inkscape-stroke:none"/>
<g id="path3729" transform="translate(-0.29243977,-5)">
<path d="m 306.5,143 a 1,1 0 0 0 -1,1 1,1 0 0 0 1,1 H 319 a 1,1 0 0 0 1,-1 1,1 0 0 0 -1,-1 z m 16.5,0 a 1,1 0 0 0 -1,1 1,1 0 0 0 1,1 h 15.5 a 1,1 0 0 0 1,-1 1,1 0 0 0 -1,-1 z" id="path5905" style="color:#000000;fill:#000000;fill-rule:evenodd;stroke-linecap:round;stroke-linejoin:round;stroke-miterlimit:4.1;-inkscape-stroke:none"/>
</g>
<path d="m 313.70756,139 a 2,2 0 0 1 -2,2 2,2 0 0 1 -2,-2 2,2 0 0 1 2,-2 2,2 0 0 1 2,2 z" id="path5895" style="color:#000000;fill:#fe93d3;fill-opacity:1;fill-rule:evenodd;stroke-width:2;stroke-linecap:round;stroke-linejoin:round;stroke-miterlimit:4.1;-inkscape-stroke:none"/>
<path d="m 311.70756,136 c -1.64501,0 -3,1.35499 -3,3 0,1.64501 1.35499,3 3,3 1.64501,0 3,-1.35499 3,-3 0,-1.64501 -1.35499,-3 -3,-3 z m 0,2 c 0.56413,0 1,0.43587 1,1 0,0.56413 -0.43587,1 -1,1 -0.56413,0 -1,-0.43587 -1,-1 0,-0.56413 0.43587,-1 1,-1 z" id="path5897" style="color:#000000;fill:#000000;fill-rule:evenodd;stroke-linecap:round;stroke-linejoin:round;stroke-miterlimit:4.1;-inkscape-stroke:none"/>
<path d="m 320.70756,121.00391 a 1,1 0 0 0 -1,1 v 7.97656 a 1,1 0 0 0 1,1 1,1 0 0 0 1,-1 v -7.97656 a 1,1 0 0 0 -1,-1 z" id="path10518" style="color:#000000;fill:#000000;fill-rule:evenodd;stroke-linecap:round;stroke-linejoin:round;stroke-miterlimit:4.1"/>
<path d="m 324.70756,121.00391 a 1,1 0 0 0 -1,1 v 7.97656 a 1,1 0 0 0 1,1 1,1 0 0 0 1,-1 v -7.97656 a 1,1 0 0 0 -1,-1 z" id="path10520" style="color:#000000;fill:#000000;fill-rule:evenodd;stroke-linecap:round;stroke-linejoin:round;stroke-miterlimit:4.1;-inkscape-stroke:none"/>
<path d="m 330.70756,122 6,4 -6,4 z" id="rect3747" style="fill:#0075d3;fill-opacity:1;fill-rule:evenodd;stroke:none;stroke-width:2.00001;stroke-linecap:round;stroke-linejoin:round;stroke-miterlimit:4.1"/>
<path d="m 330.70756,122 v 2.80664 a 4.7445492,2.3815625 27.929422 0 0 1.29492,1.14453 4.7445492,2.3815625 27.929422 0 0 2.78515,1.32812 l 1.9199,-1.27931 z" id="path26132" style="fill:#0588e2;fill-opacity:1;fill-rule:evenodd;stroke:none;stroke-width:2;stroke-linecap:round;stroke-linejoin:round;stroke-miterlimit:4.1"/>
<path d="M 330.2349,121.11914 A 1.000105,1.000105 0 0 0 329.70756,122 v 8 a 1.000105,1.000105 0 0 0 1.55469,0.83203 l 1.75195,-1.16797 a 1.000005,1.000005 0 0 0 0.27734,-1.38672 A 1.000005,1.000005 0 0 0 331.90483,128 l -0.19727,0.13086 v -4.26172 l 3.19727,2.13086 -0.23438,0.15625 a 1.000005,1.000005 0 0 0 -0.27734,1.38672 1.000005,1.000005 0 0 0 1.38672,0.27734 l 1.48242,-0.98828 a 1.000105,1.000105 0 0 0 0,-1.66406 l -6,-4 a 1.000105,1.000105 0 0 0 -1.02735,-0.0488 z" id="path5915" style="color:#000000;fill:#000000;fill-rule:evenodd;stroke-linecap:round;stroke-linejoin:round;stroke-miterlimit:4.1;-inkscape-stroke:none"/>
<path d="m 313.70756,130 -6,-4 6,-4 z" id="path10499" style="fill:#ffa221;fill-opacity:1;fill-rule:evenodd;stroke:none;stroke-width:2.00001;stroke-linecap:round;stroke-linejoin:round;stroke-miterlimit:4.1"/>
<path d="m 313.70756,122 -6,4 2.00391,1.33593 a 2.7732017,5.3238409 57.981783 0 0 0.5332,-0.19724 2.7732017,5.3238409 57.981783 0 0 3.46289,-2.41015 z" id="path26063" style="fill:#ffc343;fill-opacity:1;fill-rule:evenodd;stroke:none;stroke-width:2;stroke-linecap:round;stroke-linejoin:round;stroke-miterlimit:4.1"/>
<path d="m 314.18022,121.11914 a 1.000105,1.000105 0 0 0 -1.02735,0.0488 l -6,4 a 1.000105,1.000105 0 0 0 0,1.66406 l 6,4 A 1.000105,1.000105 0 0 0 314.70756,130 v -2 a 1.000005,1.000005 0 0 0 -1,-1 1.000005,1.000005 0 0 0 -1,1 v 0.13086 L 309.51029,126 l 3.19727,-2.13086 v 0.15625 a 1.000005,1.000005 0 0 0 1,1 1.000005,1.000005 0 0 0 1,-1 V 122 a 1.000105,1.000105 0 0 0 -0.52734,-0.88086 z" id="path5917" style="color:#000000;fill:#000000;fill-rule:evenodd;stroke-linecap:round;stroke-linejoin:round;stroke-miterlimit:4.1"/>
</g>
</svg>